<svg width="40" height="40" viewBox="0 0 40 40" fill="none" xmlns="http://www.w3.org/2000/svg">
<g clip-path="url(#clip0_1_2223)">
<path d="M14.4769 13.7685H8.01758V20.2278H14.4769V13.7685Z" fill="#1898F4"/>
<path d="M14.4769 24.6473H8.01758V31.1066H14.4769V24.6473Z" fill="#1898F4"/>
<path d="M23.9944 13.7685H17.5352V20.2278H23.9944V13.7685Z" fill="#1898F4"/>
<path d="M33.0037 0H6.8266C5.02332 0 3.29391 0.716348 2.0188 1.99145C0.743691 3.26656 0.0273438 4.99598 0.0273438 6.79925L0.0273438 32.9764C0.0273438 34.7796 0.743691 36.5091 2.0188 37.7842C3.29391 39.0593 5.02332 39.7756 6.8266 39.7756H22.8048C21.9519 38.4293 21.2258 37.0067 20.6359 35.5261H8.01646C7.11483 35.5261 6.25012 35.1679 5.61257 34.5304C4.97501 33.8928 4.61684 33.0281 4.61684 32.1265V10.0289H35.5534V20.6799C36.4558 20.6949 37.2628 20.8903 38.1457 21.2137C38.8001 21.4533 39.3405 21.6775 39.803 22.2081L39.803 6.79925C39.803 4.99598 39.0866 3.26656 37.8115 1.99145C36.5364 0.716348 34.807 0 33.0037 0Z" fill="#1898F4"/>
<path d="M39.3244 25.2955C39.2442 25.0503 39.1432 24.8125 39.0226 24.5845L38.9924 24.5208C38.9421 24.4302 38.8884 24.3397 38.8314 24.2524C38.7744 24.1652 38.7677 24.1552 38.7341 24.1082C38.7006 24.0613 38.6335 23.964 38.5798 23.8936C38.4946 23.7894 38.4039 23.6897 38.3082 23.5951C38.2713 23.5548 38.2277 23.5213 38.1874 23.4844C38.1472 23.4475 38.0298 23.3469 37.9459 23.2832L37.8252 23.196C37.6999 23.1106 37.57 23.0322 37.4361 22.9612C37.3192 22.9037 37.1994 22.8522 37.0773 22.8069L36.9867 22.7734C36.8626 22.7294 36.736 22.6925 36.6077 22.6627C36.4769 22.6325 36.3428 22.609 36.2053 22.5889H36.1113C34.8345 22.464 33.5511 22.7508 32.4489 23.4073C31.8565 23.774 31.1735 23.9683 30.4767 23.9683C29.78 23.9683 29.097 23.774 28.5046 23.4073C26.8511 22.4447 24.8958 22.2636 23.5173 22.9612C22.2764 23.5884 21.505 24.8931 21.3105 26.7377C20.9717 29.8233 21.941 33.1773 23.1685 35.8604L23.2188 35.9677C23.7747 37.1782 24.4487 38.3309 25.2312 39.4089C25.3369 39.5304 25.4688 39.6265 25.6169 39.6898C25.765 39.7531 25.9255 39.782 26.0865 39.7744C26.3969 39.7731 26.6994 39.6757 26.9522 39.4955C27.2051 39.3154 27.3959 39.0613 27.4985 38.7682L28.0753 37.1684C28.2554 36.6725 28.5838 36.2441 29.0158 35.9414C29.4478 35.6386 29.9626 35.4762 30.4902 35.4762C31.0177 35.4762 31.5325 35.6386 31.9645 35.9414C32.3966 36.2441 32.7249 36.6725 32.905 37.1684L33.4819 38.7682C33.583 39.0616 33.7729 39.3161 34.0254 39.4964C34.2779 39.6768 34.5803 39.7739 34.8905 39.7744C35.0519 39.7821 35.213 39.7531 35.3616 39.6898C35.5103 39.6265 35.6428 39.5305 35.7491 39.4089C37.6038 36.9135 40.1763 31.4835 39.6531 26.7411C39.5986 26.2483 39.4883 25.7634 39.3244 25.2955ZM33.6831 30.7255H31.5668V32.8419H29.5108V30.7255H27.3945V28.6696H29.5108V26.5532H31.5668V28.6696H33.6831V30.7255Z" fill="#1898F4"/>
</g>
<defs>
<clipPath id="clip0_1_2223">
<rect width="39.7756" height="40" fill="white" transform="translate(0.0273438)"/>
</clipPath>
</defs>
</svg>
