<svg width="12" height="12" viewBox="0 0 12 12" fill="none" xmlns="http://www.w3.org/2000/svg">
<path d="M6.00059 5.52186C7.14485 5.52186 8.07246 4.59425 8.07246 3.44999C8.07246 2.30572 7.14485 1.37811 6.00059 1.37811C4.85632 1.37811 3.92871 2.30572 3.92871 3.44999C3.92871 4.59425 4.85632 5.52186 6.00059 5.52186Z" fill="#353E5C"/>
<path fill-rule="evenodd" clip-rule="evenodd" d="M6.0002 1.85621C5.11999 1.85621 4.40645 2.56976 4.40645 3.44996C4.40645 4.33017 5.11999 5.04371 6.0002 5.04371C6.8804 5.04371 7.59395 4.33017 7.59395 3.44996C7.59395 2.56976 6.8804 1.85621 6.0002 1.85621ZM3.4502 3.44996C3.4502 2.04164 4.59187 0.899963 6.0002 0.899963C7.40852 0.899963 8.5502 2.04164 8.5502 3.44996C8.5502 4.85829 7.40852 5.99996 6.0002 5.99996C4.59187 5.99996 3.4502 4.85829 3.4502 3.44996Z" fill="#353E5C"/>
<path d="M2.71564 10.6219H9.28508C10.013 10.6219 10.5738 9.99594 10.2339 9.35225C9.73375 8.40538 8.59371 7.27502 6.00036 7.27502C3.40702 7.27502 2.26695 8.40538 1.76688 9.35225C1.42692 9.99594 1.98767 10.6219 2.71564 10.6219Z" fill="#353E5C"/>
<path fill-rule="evenodd" clip-rule="evenodd" d="M2.85329 7.54799C3.61122 7.09556 4.63244 6.79688 6.00007 6.79688C7.36769 6.79688 8.38891 7.09556 9.14685 7.54799C9.90515 8.00064 10.372 8.59052 10.6564 9.12893L10.6564 9.12896C10.9201 9.62841 10.8337 10.1494 10.5337 10.5263C10.2463 10.8872 9.78105 11.1 9.28479 11.1H2.71535C2.21908 11.1 1.75387 10.8872 1.46647 10.5263C1.16638 10.1494 1.08002 9.62838 1.3438 9.12894L1.76658 9.35223L1.3438 9.12894C1.62816 8.59052 2.09498 8.00064 2.85329 7.54799ZM3.34341 8.36908C2.75833 8.71833 2.40509 9.16706 2.18937 9.57552L2.18936 9.57552C2.11318 9.71976 2.13722 9.83353 2.21451 9.93059C2.30449 10.0436 2.48364 10.1438 2.71535 10.1438H9.28479C9.51648 10.1438 9.69563 10.0436 9.78561 9.93059C9.86291 9.83353 9.88695 9.71976 9.8108 9.57553C9.59506 9.16706 9.2418 8.71833 8.65672 8.36908C8.07127 8.01961 7.22579 7.75313 6.00007 7.75313C4.77435 7.75313 3.92887 8.01961 3.34341 8.36908Z" fill="#353E5C"/>
</svg>
